<svg width="8" height="8" viewBox="0 0 8 8" fill="none" xmlns="http://www.w3.org/2000/svg">
<rect x="0.25" y="0.25" width="7.5" height="7.5" rx="0.75" fill="white" stroke="#CCCCCC" stroke-width="0.5"/>
<path d="M1.46932 3.51059C1.31526 4.08556 1.37141 4.69664 1.62767 5.23391C1.88394 5.77118 2.3235 6.19939 2.8673 6.4415C3.41109 6.68361 4.02343 6.72375 4.59418 6.55468C5.16492 6.38562 5.65661 6.01846 5.98081 5.51923L5.28891 5.06991C5.0717 5.40439 4.74226 5.65039 4.35986 5.76366C3.97746 5.87693 3.5672 5.85004 3.20285 5.68782C2.83851 5.52561 2.544 5.23871 2.37231 4.87874C2.20061 4.51877 2.16299 4.10935 2.26621 3.72411L1.46932 3.51059Z" fill="#333333"/>
<path d="M4.85155 5.53715L4.66431 4.40691L5.99694 5.51329L4.85155 5.53715Z" fill="#333333"/>
<path d="M6.41281 4.48941C6.56687 3.91444 6.51072 3.30336 6.25446 2.76609C5.99819 2.22882 5.55863 1.80061 5.01483 1.5585C4.47104 1.31639 3.8587 1.27625 3.28795 1.44532C2.71721 1.61438 2.22552 1.98154 1.90132 2.48077L2.59322 2.93009C2.81043 2.59561 3.13987 2.34961 3.52227 2.23634C3.90467 2.12307 4.31493 2.14996 4.67928 2.31218C5.04362 2.47439 5.33813 2.76129 5.50982 3.12126C5.68152 3.48123 5.71914 3.89065 5.61592 4.27589L6.41281 4.48941Z" fill="#333333"/>
<path d="M3.03058 2.46285L3.21782 3.59309L1.88519 2.48671L3.03058 2.46285Z" fill="#333333"/>
</svg>
