<svg width="8" height="8" viewBox="0 0 8 8" fill="none" xmlns="http://www.w3.org/2000/svg">
<rect x="0.249985" y="7.75003" width="7.5" height="7.5" rx="0.75" transform="rotate(-90 0.249985 7.75003)" fill="white" stroke="#CCCCCC" stroke-width="0.5"/>
<path d="M6.5 3.5C6.5 4.60457 5.60457 5.5 4.5 5.5C3.39543 5.5 2.5 4.60457 2.5 3.5C2.5 2.39543 3.39543 1.5 4.5 1.5C5.60457 1.5 6.5 2.39543 6.5 3.5ZM3.16 3.5C3.16 4.24006 3.75994 4.84 4.5 4.84C5.24006 4.84 5.84 4.24006 5.84 3.5C5.84 2.75994 5.24006 2.16 4.5 2.16C3.75994 2.16 3.16 2.75994 3.16 3.5Z" fill="#333333"/>
<path d="M2.85481 5.10229L3.20963 5.45458L2.15276 6.51902L1.44313 5.81444L2.10368 5.14917L2.85481 5.10229Z" fill="#333333"/>
<path d="M2.85481 5.10229L3.20963 5.45458L2.15276 6.51902L1.44313 5.81444L2.10368 5.14917L2.85481 5.10229Z" fill="#333333"/>
</svg>
